<svg xmlns="http://www.w3.org/2000/svg" xmlns:xlink="http://www.w3.org/1999/xlink" width="500" zoomAndPan="magnify" viewBox="0 0 375 374.999991" height="500" preserveAspectRatio="xMidYMid meet" version="1.2"><defs><clipPath id="6bf1326c58"><path d="M 145.425781 143.257812 L 310.425781 143.257812 L 310.425781 308.257812 L 145.425781 308.257812 Z M 145.425781 143.257812 "/></clipPath><clipPath id="f16b700415"><path d="M 145.425781 308.257812 L 310.191406 308.257812 L 310.191406 143.492188 Z M 145.425781 308.257812 "/></clipPath></defs><g id="21ec522324"><g clip-rule="nonzero" clip-path="url(#6bf1326c58)"><g clip-rule="nonzero" clip-path="url(#f16b700415)"><path style=" stroke:none;fill-rule:nonzero;fill:#000000;fill-opacity:1;" d="M 145.425781 308.257812 L 310.191406 308.257812 L 310.191406 143.492188 L 145.425781 143.492188 Z M 145.425781 308.257812 "/></g></g><path style="fill:none;stroke-width:3;stroke-linecap:butt;stroke-linejoin:miter;stroke:#000000;stroke-opacity:1;stroke-miterlimit:4;" d="M -0.002252 1.498779 L 203.877659 1.50174 " transform="matrix(0.828038,0.00119503,-0.00119503,0.828038,101.659906,272.430832)"/><path style="fill:none;stroke-width:3;stroke-linecap:butt;stroke-linejoin:miter;stroke:#000000;stroke-opacity:1;stroke-miterlimit:4;" d="M -0.00225079 1.498595 L 205.698376 1.498595 " transform="matrix(0,0.828039,-0.828039,0,271.717458,104.423739)"/><path style="fill:none;stroke-width:3;stroke-linecap:butt;stroke-linejoin:miter;stroke:#000000;stroke-opacity:1;stroke-miterlimit:4;" d="M -0.00131993 1.501499 L 288.032964 1.499025 " transform="matrix(-0.586564,0.58433,-0.58433,-0.586564,271.501597,105.885403)"/><path style="fill:none;stroke-width:3;stroke-linecap:butt;stroke-linejoin:miter;stroke:#000000;stroke-opacity:1;stroke-miterlimit:4;" d="M 0.00131564 1.501396 L 203.879821 1.500378 " transform="matrix(0.865922,0.0012497,-0.0012497,0.865922,65.418706,242.438187)"/><path style="fill:none;stroke-width:3;stroke-linecap:butt;stroke-linejoin:miter;stroke:#000000;stroke-opacity:1;stroke-miterlimit:4;" d="M 0.00188808 1.500941 L 205.698145 1.500941 " transform="matrix(0,0.865923,-0.865923,0,243.256731,66.744459)"/><path style="fill:none;stroke-width:3;stroke-linecap:butt;stroke-linejoin:miter;stroke:#000000;stroke-opacity:1;stroke-miterlimit:4;" d="M -0.00016574 1.501977 L 288.033696 1.501095 " transform="matrix(-0.613401,0.611065,-0.611065,-0.613401,243.030985,68.272978)"/></g></svg>